:SAMPLES-PER-SECOND 24
:FULLY-SPECIFIED
:DEGREES
440
root  3.46825 39.0547 43.3605 -37.9326 18.7095 -35.7131
RightUpLeg  -42.6185 -26.9992 -23.3923
RightLeg  58.6847 -12.6179 -21.7276
RightFoot  -6.72508 0.0623101 -2.75995
RightToes  -2.08645e-008 3.77894e-005 6.81332e-007
Spine  20.6047 0.531209 9.83695
Spine1  4.86219 -1.82902 20.0209
HEad  -18.1365 -7.79329 5.31776
LeftShoulder1  5.12737 -10.7304 -30.0092
LeftArm  -6.66092 11.5971 -6.87473
LeftForeArm  93.9073 -80.1517 -88.6223
LeftHand  -0.749764 -1.09608 13.551
RightShoulder  3.43855 6.13945 29.7422
RightArm  -20.484 -12.8187 11.2286
RightForeArm  7.78526 37.8198 8.23254
RightHand  -2.40405 4.85092 -27.0503
LeftUpLeg  -0.0670652 -7.91269 21.1055
LeftLeg  26.616 8.68696 5.03343
LeftFoot  -1.80476 -0.893376 10.8042
LeftToes  1.24767e-006 1.47042e-008 1.32732e-009
441
root  3.02533 39.5389 44.3529 -43.1738 21.8221 -38.6086
RightUpLeg  -45.6234 -24.2494 -30.6669
RightLeg  35.4342 -21.2027 -15.3286
RightFoot  -9.604 -0.0245167 -2.14202
RightToes  -2.08645e-008 3.77894e-005 6.81332e-007
Spine  22.0952 -0.11742 7.45313
Spine1  3.89653 -2.5748 21.2407
HEad  -16.0626 -8.9896 5.92213
LeftShoulder1  4.84424 -10.4023 -28.7999
LeftArm  -6.17771 -0.447087 -3.68465
LeftForeArm  90.8812 -80.0787 -86.8105
LeftHand  -0.744605 -1.74994 12.2856
RightShoulder  3.49825 6.16999 30.256
RightArm  -25.0591 -17.2391 8.29039
RightForeArm  4.18693 32.6328 6.98016
RightHand  -2.32811 4.58176 -26.9084
LeftUpLeg  2.89765 -8.24805 23.5077
LeftLeg  25.9711 5.34327 3.16357
LeftFoot  -0.943981 -0.946933 10.4464
LeftToes  1.24767e-006 1.47042e-008 1.32732e-009
442
root  2.65748 39.9674 45.5674 -47.311 24.3214 -41.5421
RightUpLeg  -48.5551 -22.3825 -35.7508
RightLeg  11.4473 -21.0537 -8.13558
RightFoot  -7.86641 -0.174075 3.54225
RightToes  -2.08645e-008 3.77894e-005 6.81332e-007
Spine  22.6595 -1.52909 7.45344
Spine1  2.36897 -2.53621 19.5665
HEad  -14.6648 -9.12419 5.71253
LeftShoulder1  4.67561 -10.1268 -28.2515
LeftArm  -8.86762 -10.4625 -2.38964
LeftForeArm  90.1508 -80.0743 -86.0544
LeftHand  -0.677702 -2.74104 9.90498
RightShoulder  3.48963 6.15842 30.2092
RightArm  -23.1784 -21.4064 8.34501
RightForeArm  -1.45637 24.7284 5.19154
RightHand  -2.00803 3.63287 -25.6768
LeftUpLeg  5.22469 -10.4533 25.4626
LeftLeg  25.1304 5.54515 3.15527
LeftFoot  -1.10458 -0.836515 9.38939
LeftToes  1.24767e-006 1.47042e-008 1.32732e-009
443
root  2.27756 40.0659 46.6735 -52.3262 25.7084 -44.9908
RightUpLeg  -58.0251 -24.7159 -30.8374
RightLeg  4.86005 -14.3147 -6.73424
RightFoot  -7.5111 -0.366959 9.42288
RightToes  -2.08645e-008 3.77894e-005 6.81332e-007
Spine  25.0443 -3.2846 8.70749
Spine1  0.517703 -2.65387 18.6524
HEad  -14.3303 -6.82959 4.57595
LeftShoulder1  4.58282 -10.0005 -27.8754
LeftArm  -13.0321 -17.009 -3.69323
LeftForeArm  97.5877 -80.1045 -93.0488
LeftHand  -0.62427 -2.99951 8.87105
RightShoulder  3.488 6.27724 29.7442
RightArm  -21.6205 -23.9959 9.0504
RightForeArm  1.88323 15.0464 6.60803
RightHand  -1.79778 3.63401 -23.092
LeftUpLeg  7.19544 -12.4783 27.6106
LeftLeg  25.8706 8.88398 4.98853
LeftFoot  -2.93776 -0.621166 8.67813
LeftToes  1.24767e-006 1.47042e-008 1.32732e-009
444
root  1.59689 39.888 47.3684 -58.3572 28.5595 -48.8661
RightUpLeg  -67.7471 -22.8683 -31.1335
RightLeg  19.0907 -18.8146 -6.80846
RightFoot  -9.39833 -0.205456 8.25244
RightToes  -2.08645e-008 3.77894e-005 6.81332e-007
Spine  29.6611 -4.00794 7.51532
Spine1  -0.487965 -4.02882 20.711
HEad  -16.7704 -1.94796 2.72721
LeftShoulder1  4.88656 -10.4574 -28.9597
LeftArm  -16.6678 -22.6307 -5.20032
LeftForeArm  106.157 -79.9281 -101.534
LeftHand  -0.682218 -2.51775 10.2214
RightShoulder  3.68093 6.56108 30.6678
RightArm  -20.779 -24.7209 8.88927
RightForeArm  13.4168 6.55904 7.94229
RightHand  -1.9047 5.29978 -20.7583
LeftUpLeg  6.71701 -11.3499 28.6974
LeftLeg  28.3894 15.7929 9.37602
LeftFoot  -4.6356 -0.483311 8.70795
LeftToes  1.24767e-006 1.47042e-008 1.32732e-009
